<svg xmlns="http://www.w3.org/2000/svg" width="1200" height="640" viewBox="0 0 1200 640" role="img" aria-labelledby="title desc">
  <title id="title">Public-Safe Front-Target Brake Distribution Architecture</title>
  <desc id="desc">Public-safe block diagram showing ADAS-requested deceleration, ego and forward-target context, rule-based brake allocation, auxiliary brake, foundation brake, and final deceleration response.</desc>
  <defs>
    <marker id="arrow" markerWidth="10" markerHeight="10" refX="8" refY="3" orient="auto" markerUnits="strokeWidth">
      <path d="M0,0 L0,6 L9,3 z" fill="#334155" />
    </marker>
    <style>
      .bg { fill: #ffffff; }
      .box { fill: #f8fafc; stroke: #334155; stroke-width: 1.6; rx: 16; }
      .box-accent { fill: #fff7ed; stroke: #c2410c; stroke-width: 1.8; rx: 16; }
      .box-safe { fill: #f0fdf4; stroke: #15803d; stroke-width: 1.8; rx: 16; }
      .line { stroke: #334155; stroke-width: 2.2; fill: none; marker-end: url(#arrow); }
      .muted-line { stroke: #64748b; stroke-width: 1.8; stroke-dasharray: 6 6; fill: none; marker-end: url(#arrow); }
      .heading { font-family: Arial, sans-serif; font-size: 26px; font-weight: 700; fill: #0f172a; }
      .label { font-family: Arial, sans-serif; font-size: 16px; font-weight: 700; fill: #0f172a; text-anchor: middle; dominant-baseline: middle; }
      .small { font-family: Arial, sans-serif; font-size: 13px; fill: #475569; text-anchor: middle; dominant-baseline: middle; }
      .note { font-family: Arial, sans-serif; font-size: 13px; fill: #64748b; }
    </style>
  </defs>
  <rect class="bg" x="0" y="0" width="1200" height="640" />
  <text class="heading" x="56" y="54">Public-Safe Front-Target Brake Distribution Architecture</text>
  <text class="note" x="56" y="82">Internal thresholds, brake maps, calibration values, and platform-specific parameters are intentionally omitted.</text>

  <!-- Inputs -->
  <rect class="box" x="70" y="125" width="230" height="82" rx="16" />
  <text class="label" x="185" y="154">ADAS-Requested</text>
  <text class="label" x="185" y="177">Deceleration</text>

  <rect class="box" x="70" y="275" width="230" height="92" rx="16" />
  <text class="label" x="185" y="305">Ego / Forward Target</text>
  <text class="small" x="185" y="330">speed, distance,</text>
  <text class="small" x="185" y="350">speed gradient</text>

  <rect class="box" x="70" y="455" width="230" height="92" rx="16" />
  <text class="label" x="185" y="484">Road Context</text>
  <text class="small" x="185" y="509">long downhill and</text>
  <text class="small" x="185" y="529">thermal-load risk</text>

  <!-- Decision logic -->
  <rect class="box-accent" x="420" y="235" width="300" height="128" rx="16" />
  <text class="label" x="570" y="269">Rule-Based</text>
  <text class="label" x="570" y="294">Brake Allocation</text>
  <text class="small" x="570" y="322">safety + durability +</text>
  <text class="small" x="570" y="342">driver acceptance</text>

  <!-- Brake commands -->
  <rect class="box" x="830" y="145" width="245" height="92" rx="16" />
  <text class="label" x="952.5" y="176">Auxiliary Brake</text>
  <text class="small" x="952.5" y="203">prioritized when allowed</text>

  <rect class="box" x="830" y="365" width="245" height="92" rx="16" />
  <text class="label" x="952.5" y="396">Foundation Brake</text>
  <text class="small" x="952.5" y="423">blended when needed</text>

  <rect class="box-safe" x="830" y="520" width="245" height="82" rx="16" />
  <text class="label" x="952.5" y="550">Final Braking</text>
  <text class="small" x="952.5" y="575">deceleration response</text>

  <!-- Arrows -->
  <path class="line" d="M300 166 L420 268" />
  <path class="line" d="M300 321 L418 299" />
  <path class="muted-line" d="M300 501 L420 331" />

  <path class="line" d="M720 277 L830 191" />
  <path class="line" d="M720 321 L830 411" />
  <path class="line" d="M952 237 L952 365" />
  <path class="line" d="M952 457 L952 520" />

  <!-- Notes -->
  <text class="note" x="70" y="603">Goal: satisfy front-target deceleration demand while reducing unnecessary foundation-brake usage in heavy-duty scenarios.</text>
</svg>
